<?xml version="1.0" encoding="UTF-8"?>
<svg id="Layer_1" xmlns="http://www.w3.org/2000/svg" xmlns:xlink="http://www.w3.org/1999/xlink" version="1.1" viewBox="0 0 384 38.7">
  <!-- Generator: Adobe Illustrator 30.1.0, SVG Export Plug-In . SVG Version: 2.1.1 Build 136)  -->
  <defs>
    <style>
      .st0 {
        stroke: url(#linear-gradient2);
      }

      .st0, .st1, .st2, .st3, .st4, .st5, .st6, .st7, .st8 {
        fill: none;
        stroke-miterlimit: 10;
      }

      .st1 {
        stroke: url(#linear-gradient1);
      }

      .st2 {
        stroke: url(#linear-gradient7);
      }

      .st3 {
        stroke: url(#linear-gradient6);
      }

      .st4 {
        stroke: url(#linear-gradient3);
      }

      .st5 {
        stroke: url(#linear-gradient4);
      }

      .st6 {
        stroke: url(#linear-gradient5);
      }

      .st7 {
        stroke: url(#linear-gradient8);
      }

      .st8 {
        stroke: url(#linear-gradient);
      }
    </style>
    <linearGradient id="linear-gradient" x1="152.6" y1="19.3" x2="206.7" y2="19.3" gradientUnits="userSpaceOnUse">
      <stop offset="0" stop-color="#a37529"/>
      <stop offset=".5" stop-color="#f2dea6"/>
      <stop offset="1" stop-color="#7c4b1d"/>
    </linearGradient>
    <linearGradient id="linear-gradient1" x1="178.8" x2="232.9" xlink:href="#linear-gradient"/>
    <linearGradient id="linear-gradient2" x1="381.9" y1="19.3" x2="413.2" y2="19.3" xlink:href="#linear-gradient"/>
    <linearGradient id="linear-gradient3" x1="396.7" y1="19.3" x2="427.9" y2="19.3" xlink:href="#linear-gradient"/>
    <linearGradient id="linear-gradient4" x1="153.5" y1="19.6" x2="-200" y2="19.6" xlink:href="#linear-gradient"/>
    <linearGradient id="linear-gradient5" x1="585.6" y1="19.6" x2="232.1" y2="19.6" xlink:href="#linear-gradient"/>
    <linearGradient id="linear-gradient6" x1="-45.5" y1="19.3" x2="-14.3" y2="19.3" xlink:href="#linear-gradient"/>
    <linearGradient id="linear-gradient7" x1="-30.7" y1="19.3" x2=".5" y2="19.3" xlink:href="#linear-gradient"/>
    <linearGradient id="linear-gradient8" x1="-45.5" y1="19.3" x2="-14.3" y2="19.3" gradientUnits="userSpaceOnUse">
      <stop offset="0" stop-color="#a37529"/>
      <stop offset=".5" stop-color="#f2dea6"/>
      <stop offset="1" stop-color="#7c4b1d"/>
    </linearGradient>
  </defs>
  <g>
    <polygon class="st8" points="153.5 19.6 179.7 0 205.9 19.6 179.7 38.7 153.5 19.6"/>
    <polygon class="st1" points="179.7 19.6 205.9 0 232.1 19.6 205.9 38.7 179.7 19.6"/>
  </g>
  <g>
    <polygon class="st0" points="382.8 19.6 397.5 8.4 412.3 19.6 397.5 30.3 382.8 19.6"/>
    <polygon class="st4" points="397.5 19.6 412.3 8.4 427.1 19.6 412.3 30.3 397.5 19.6"/>
  </g>
  <line class="st5" x1="153.5" y1="19.6" x2="-200" y2="19.6"/>
  <line class="st6" x1="585.6" y1="19.6" x2="232.1" y2="19.6"/>
  <g>
    <polygon class="st3" points="-44.7 19.6 -29.9 8.4 -15.1 19.6 -29.9 30.3 -44.7 19.6"/>
    <polygon class="st2" points="-29.9 19.6 -15.1 8.4 -.3 19.6 -15.1 30.3 -29.9 19.6"/>
  </g>
  <polygon class="st7" points="-44.7 19.6 -29.9 8.4 -15.1 19.6 -29.9 30.3 -44.7 19.6"/>
</svg>