<svg xmlns="http://www.w3.org/2000/svg" viewBox="0 0 1200 38.692">
  <defs>
    <linearGradient id="gold-gradient" x1="0" y1="0" x2="1200" y2="0" gradientUnits="userSpaceOnUse">
      <stop offset="0" stop-color="#7c4b1d"/>
      <stop offset="0.25" stop-color="#a37529"/>
      <stop offset="0.5" stop-color="#f2dea6"/>
      <stop offset="0.75" stop-color="#a37529"/>
      <stop offset="1" stop-color="#7c4b1d"/>
    </linearGradient>
  </defs>
  <g fill="url(#gold-gradient)">
    <!-- Left horizontal line -->
    <rect x="0" y="19.367" width="561" height="1"/>
    <!-- Right horizontal line -->
    <rect x="639" y="19.367" width="561" height="1"/>
    <!-- Left inner diamond -->
    <path d="M232.383,30.848l-15.038-10.542,15.037-11.665,15.037,11.665-15.036,10.542ZM218.897,20.269l13.486,9.455,13.486-9.455-13.486-10.462-13.486,10.462Z"/>
    <!-- Left outer diamond -->
    <path d="M246.647,30.848l-15.039-10.542,15.039-11.665,15.037,11.665-15.037,10.542ZM233.159,20.269l13.488,9.454,13.486-9.455-13.486-10.461-13.488,10.462Z"/>
    <!-- Center left diamond -->
    <path d="M564.579,20.25l23.1-17.919,23.1,17.919-23.1,16.193-23.1-16.193ZM587.676,0l-26.2,20.325,26.2,18.367,26.2-18.367L587.676,0Z"/>
    <!-- Center right diamond -->
    <path d="M612.324,0l-26.2,20.325,26.2,18.367,26.2-18.367L612.324,0ZM589.227,20.25l23.1-17.919,23.1,17.919-23.1,16.193-23.1-16.193Z"/>
    <!-- Right inner diamond -->
    <path d="M953.356,30.848l-15.037-10.542,15.037-11.665,15.032,11.665-15.032,10.542ZM939.87,20.269l13.486,9.455,13.486-9.455-13.486-10.462-13.486,10.462Z"/>
    <!-- Right outer diamond -->
    <path d="M967.616,30.848l-15.036-10.542,15.036-11.665,15.037,11.665-15.037,10.542ZM954.131,20.269l13.485,9.455,13.486-9.455-13.486-10.462-13.485,10.462Z"/>
  </g>
</svg>
